<?xml version="1.0" encoding="utf-8"?>
<!-- Generator: Adobe Illustrator 26.2.1, SVG Export Plug-In . SVG Version: 6.00 Build 0)  -->
<svg version="1.1" id="Réteg_1" xmlns="http://www.w3.org/2000/svg" xmlns:xlink="http://www.w3.org/1999/xlink" x="0px" y="0px"
	 viewBox="0 0 110 110" style="enable-background:new 0 0 110 110;" xml:space="preserve">
<style type="text/css">
	.st0{opacity:0.43;}
	.st1{fill:#1C1C1C;}
</style>
<g id="first_00000020361271928497269970000003413327747151044764_" class="st0">
	<path id="XMLID_00000086679578300877612890000006911551410185432722_" class="st1" d="M70.1,109.3c0,0-41.2-3.7-46.6-32.7
		c-6.7-35.4,20-47.4,20-47.4S5.7,36.5,11.4,73.8C18.2,118.1,70.1,109.3,70.1,109.3z"/>
	<path id="XMLID_00000100363390690228667300000015994866545994520459_" class="st1" d="M110,57.5c0,0-17.5,38.3-46.1,33.6
		c-34.8-5.8-36.8-35.5-36.8-35.5s-6.2,38.9,30,46.2C100.3,110.4,110,57.5,110,57.5z"/>
	<path id="XMLID_00000107588670241764016910000018419494620273777792_" class="st1" d="M76,1.4c0,0,29.3,29.8,15.1,55.7
		C73.9,88.6,46,80.3,46,80.3s33.6,19.3,52.6-13C121.3,28.8,76,1.4,76,1.4z"/>
	<path id="XMLID_00000130623695646470344110000000102520611057364136_" class="st1" d="M12.9,14.9c0,0,37.5-17.9,56.3,4.5
		c23,27.3,5.8,51.3,5.8,51.3s29.3-25.6,6.1-54.9C53.6-19.2,12.9,14.9,12.9,14.9z"/>
	<path id="XMLID_00000141441757976472539730000006053773403700941734_" class="st1" d="M3.6,80.2c0,0-3.6-42.1,23.4-52.6
		c33-12.8,49.2,11.9,49.2,11.9S62.6,2.7,27.8,14.9C-13.8,29.4,3.6,80.2,3.6,80.2z"/>
</g>
<g id="second_00000164476537795964951160000009638750013267068817_">
	<path id="XMLID_00000106129810005979330440000010980207867102979492_" class="st1" d="M89.2,70.7c0,0-19.7,19-35.9,9
		C33.6,67.6,39.5,49.1,39.5,49.1s-13,22.1,7.3,35.4C70.8,100.5,89.2,70.7,89.2,70.7z"/>
	<path id="XMLID_00000050629718495547608510000009146672674069643927_" class="st1" d="M81.9,28.3c0,0,10.7,25.4-4,37.6
		c-18,14.9-33,2.9-33,2.9s15.8,20,35.1,5.1C102.9,56.1,81.9,28.3,81.9,28.3z"/>
	<path id="XMLID_00000044881523437727018770000007262661855468771464_" class="st1" d="M40.4,20.8c0,0,27-1.6,33.2,16.6
		C81,59.7,64.9,70,64.9,70s23.9-8.4,16.7-31.9C73.1,10.2,40.4,20.8,40.4,20.8z"/>
	<path id="XMLID_00000105385717962971821240000002193594186547972503_" class="st1" d="M19.3,58.2c0,0,7.8-26.5,26.7-26.1
		C69,32.4,73,51.4,73,51.4s0.5-25.7-23.6-27C20.7,23.1,19.3,58.2,19.3,58.2z"/>
	<path id="XMLID_00000170968191222888513600000004116158524745252511_" class="st1" d="M46.5,91.2c0,0-21.7-16.5-14.9-34.6
		c8.2-22,27.1-19.2,27.1-19.2s-23.5-9.3-32.9,13.5C14.6,77.9,46.5,91.2,46.5,91.2z"/>
</g>
</svg>
